# xmcd CD database file generated by Grip 2.2
# 
# Track frame offsets:
#       150
#       11312
#       24117
#       40905
#       53565
#       67547
#       79175
#       94332
#       106757
#       113185
#       125765
#       137700
#       151860
#       162542
#       179822
#       198907
#       212382
#       223977
#       246275
#       261230
#       275340
#       287072
#       301967
#       317200
#       330422
# 
# Disc length: 4582 seconds
# 
# Revision: 3
# Processed by: cddbd v1.4b41PL1 Copyright (c) Steve Scherf et al.
# Submitted via: Grip 2.2
# 
DISCID=5f11e419
DTITLE=Cornelis Vreeswijk - Sambaliten
DYEAR=1900
DGENRE=
TTITLE0=The bananrepublikens sång
TTITLE1=Samba för Pomperipossa
TTITLE2=Systemblues
TTITLE3=När det brinner i lögnfabriken
TTITLE4=Syndomblues
TTITLE5=Blues för IRA
TTITLE6=Sist jag åkte jumbojet blues
TTITLE7=Blues för Viktor Jara
TTITLE8=Blues för Almqvist
TTITLE9=Blues för en arbetarkvinna som hängt sig
TTITLE10=Blues för Fatumeh
TTITLE11=Bruna bönor complet
TTITLE12=Blues för MacBeth
TTITLE13=Pamflett Nr 8
TTITLE14=Blues för ett torn
TTITLE15=Luchin
TTITLE16=Hommage
TTITLE17=Blues för Jaques Brel
TTITLE18=Till Julia
TTITLE19=Sambaliten
TTITLE20=Pamflett Nr 53
TTITLE21=Pamflett Nr 68
TTITLE22=Pamflett Nr 62
TTITLE23=Hommage för Sveriges radio
TTITLE24=Pamflett Nr 31
EXTD=
EXTT0=
EXTT1=
EXTT2=
EXTT3=
EXTT4=
EXTT5=
EXTT6=
EXTT7=
EXTT8=
EXTT9=
EXTT10=
EXTT11=
EXTT12=
EXTT13=
EXTT14=
EXTT15=
EXTT16=
EXTT17=
EXTT18=
EXTT19=
EXTT20=
EXTT21=
EXTT22=
EXTT23=
EXTT24=
PLAYORDER=
